<svg viewBox="0 0 64 64" xml:space="preserve" xmlns="http://www.w3.org/2000/svg"><path d="M34.464 36.664v-1.116a2.464 2.464 0 1 0-4.927 0v1.116a2.464 2.464 0 1 0 4.927 0z"/><path d="M36.154 38.027c-.546 1.787-2.191 3.099-4.153 3.099-1.963 0-3.608-1.312-4.154-3.099H10.878a6.942 6.942 0 0 1-2.991-.681v11.267c0 2.2 1.8 4 4 4h40.226c2.2 0 4-1.8 4-4V37.347a6.945 6.945 0 0 1-2.991.681H36.154zM52.955 17.795h-9.601c-.58-3.626-3.721-6.408-7.508-6.408h-7.693c-3.787 0-6.927 2.782-7.508 6.408h-9.6c-2.292 0-4.167 1.8-4.167 4v9.233a4 4 0 0 0 4 4h16.78a4.342 4.342 0 0 1 1.332-2.933c.024-.023.052-.041.077-.063.173-.159.353-.309.55-.439.07-.047.15-.079.223-.121.162-.093.322-.19.497-.262.137-.057.285-.09.429-.133.124-.037.242-.086.371-.112a4.31 4.31 0 0 1 1.726 0c.128.026.246.075.37.112.144.043.292.076.429.134.174.072.333.168.495.261.074.043.154.075.225.122.197.129.376.279.549.438.025.023.054.041.078.065a4.338 4.338 0 0 1 1.332 2.933h16.78a4 4 0 0 0 4-4v-9.233c.001-2.202-1.874-4.002-4.166-4.002zm-28.459 0c.51-1.541 1.947-2.664 3.657-2.664h7.693c1.71 0 3.147 1.123 3.657 2.664H24.496z"/><style>path { fill: rebeccapurple; }@media (prefers-color-scheme: dark) {path { fill: #FFF; }}</style></svg>
