<svg xmlns="http://www.w3.org/2000/svg" version="1.1" xmlns:xlink="http://www.w3.org/1999/xlink" xmlns:svgjs="http://svgjs.dev/svgjs" width="1000" height="1000"><g clip-path="url(#SvgjsClipPath1195)"><rect width="1000" height="1000" fill="#f9f5e4"></rect><g transform="matrix(25,0,0,25,100,100)"><svg xmlns="http://www.w3.org/2000/svg" version="1.1" xmlns:xlink="http://www.w3.org/1999/xlink" xmlns:svgjs="http://svgjs.dev/svgjs" width="32" height="32"><svg data-name="Layer 1" viewBox="0 0 32 32" xmlns="http://www.w3.org/2000/svg"><path d="M29 19H3a3 3 0 0 1-3-3V7a1 1 0 0 1 1-1h30a1 1 0 0 1 1 1v9a3 3 0 0 1-3 3ZM2 8v8a1 1 0 0 0 1 1h26a1 1 0 0 0 1-1V8Z"></path><path d="M29 30H3a1 1 0 0 1-1-1V18a1 1 0 0 1 2 0v10h24V18a1 1 0 0 1 2 0v11a1 1 0 0 1-1 1ZM21 8a1 1 0 0 1-1-1V5a1 1 0 0 0-1-1h-6a1 1 0 0 0-1 1v2a1 1 0 0 1-2 0V5a3 3 0 0 1 3-3h6a3 3 0 0 1 3 3v2a1 1 0 0 1-1 1Z"></path><path d="M16 22a1 1 0 0 1-1-1v-6a1 1 0 0 1 2 0v6a1 1 0 0 1-1 1Z"></path></svg></svg></g></g><defs><clipPath id="SvgjsClipPath1195"><rect width="1000" height="1000" x="0" y="0" rx="200" ry="200"></rect></clipPath></defs></svg>